<svg xmlns="http://www.w3.org/2000/svg" width="700" height="112" fill="none"><path fill="#15253f" d="M189.206.986c2.473 0 4.908.166 7.294.486v4.442a50.5 50.5 0 0 0-7.294-.528c-27.796 0-50.33 22.655-50.33 50.6 0 27.946 22.534 50.6 50.33 50.6 2.477 0 4.913-.18 7.294-.528v4.442c-2.386.32-4.821.486-7.294.486-30.213 0-54.706-24.624-54.706-55 0-30.375 24.493-55 54.706-55"/><path fill="#15253f" d="m177 49.172-2 6.815-34.398 13.185-1.102-5.198zM677.882 78.172l1.696 3.391h-74.639l1.696-3.391zM455.367 55.987c0-27.541-22.326-49.867-49.867-49.867s-49.867 22.326-49.867 49.867 22.326 49.866 49.867 49.866v5.133c-30.376 0-55-24.624-55-55 0-30.375 24.624-55 55-55s55 24.625 55 55c0 30.376-24.624 55-55 55v-5.133c27.541 0 49.867-22.326 49.867-49.866M532.241 105.672l-2.545 5.088L475.795 2.957l4.57-2.285zM642.086 6.58l-2.684-5.367L585.5 109.016l4.57 2.285zM55.244.986c20.813 0 38.913 11.645 48.173 28.79h-5.048C89.547 15.154 73.534 5.377 55.244 5.377 27.43 5.377 4.88 27.985 4.88 55.873s22.549 50.496 50.364 50.496c19.138 0 35.782-10.702 44.305-26.463h4.926c-8.889 18.268-27.593 30.855-49.23 30.855C25.01 110.761.5 86.186.5 55.873S25.01.987 55.244.986M230.5.986h5v110.041h-5zM310.5.986h5v110.041h-5zM235.5 8.529V.986l75 105.186v4.855l-1-.855z"/><path fill="#15253f" d="m589.011 3.557-53.715 107.429h-5.409l-.191-.226L584.441 1.272zM698.716 108.416 645.001.986h-5.409l-.19.227L694.147 110.7z"/><path stroke="#15253f" d="M455.367 55.987c0-27.541-22.326-49.867-49.867-49.867m49.867 49.867c0 27.54-22.326 49.866-49.867 49.866m49.867-49.866c0-27.326-21.979-49.518-49.222-49.863l-.645-.004m0 0c-27.541 0-49.867 22.326-49.867 49.867m0 0c0 27.54 22.326 49.866 49.867 49.866m-49.867-49.866.005.644c.345 27.243 22.537 49.222 49.862 49.222m0 0v5.133m0 0c-30.376 0-55-24.624-55-55 0-30.375 24.624-55 55-55s55 24.625 55 55c0 30.376-24.624 55-55 55Zm124.196-.226 2.545-5.088-51.876-105-4.57 2.285zm0 0 .191.226h5.409l53.715-107.43-4.57-2.284zM639.402 1.213l2.684 5.368L590.07 111.3l-4.57-2.285zm0 0 .19-.227h5.409l53.715 107.43-4.569 2.285zM235.5.986h-5v110.041h5zm0 0V8.53l74 101.643 1 .855M235.5.987l75 105.185v4.855m0 0h5V.987h-5zM189.206.987c2.473 0 4.908.165 7.294.485v4.442a50.5 50.5 0 0 0-7.294-.528c-27.796 0-50.33 22.655-50.33 50.6 0 27.946 22.534 50.6 50.33 50.6 2.477 0 4.913-.18 7.294-.528v4.442c-2.386.32-4.821.486-7.294.486-30.213 0-54.706-24.624-54.706-55 0-30.375 24.493-55 54.706-55ZM177 49.171l-2 6.815-34.398 13.185-1.102-5.198zm500.882 29 1.696 3.391h-74.639l1.696-3.391zM459.5 55.987c0-29.824-24.177-54-54-54s-54 24.176-54 54c0 29.489 25.638 53.455 55 53.989 29.362-.534 53-24.5 53-53.99Zm-53 50.855c-27.631-.533-51.866-23.097-51.866-50.855 0-28.093 22.773-50.867 50.866-50.867s50.866 22.774 50.866 50.867c0 27.758-22.235 50.322-49.866 50.855ZM55.244.986c20.813 0 38.913 11.645 48.173 28.79h-5.048C89.547 15.154 73.534 5.377 55.244 5.377 27.43 5.377 4.88 27.985 4.88 55.873s22.549 50.496 50.364 50.496c19.138 0 35.782-10.702 44.305-26.463h4.926c-8.889 18.268-27.593 30.855-49.23 30.855C25.01 110.761.5 86.186.5 55.873S25.01.987 55.244.986Z"/></svg>